<?xml version="1.0" encoding="UTF-8" standalone="no"?>
<svg
   id="SvgjsSvg18602"
   width="1421.4861"
   height="1421.4861"
   version="1.1"
   sodipodi:docname="Transparent_logo.svg"
   inkscape:version="1.2.2 (b0a84865, 2022-12-01)"
   xmlns:inkscape="http://www.inkscape.org/namespaces/inkscape"
   xmlns:sodipodi="http://sodipodi.sourceforge.net/DTD/sodipodi-0.dtd"
   xmlns="http://www.w3.org/2000/svg"
   xmlns:svg="http://www.w3.org/2000/svg">
  <sodipodi:namedview
     id="namedview16"
     pagecolor="#ffffff"
     bordercolor="#666666"
     borderopacity="1.0"
     inkscape:showpageshadow="2"
     inkscape:pageopacity="0.0"
     inkscape:pagecheckerboard="0"
     inkscape:deskcolor="#d1d1d1"
     showgrid="false"
     inkscape:zoom="0.079462801"
     inkscape:cx="723.60902"
     inkscape:cy="1164.0667"
     inkscape:window-width="1512"
     inkscape:window-height="945"
     inkscape:window-x="0"
     inkscape:window-y="37"
     inkscape:window-maximized="0"
     inkscape:current-layer="SvgjsSvg18602" />
  <defs
     id="SvgjsDefs18603">
    <defs
       id="SvgjsDefs5581" />
  </defs>
  <g
     id="SvgjsG5583"
     class="1IuVwmKTg"
     transform="scale(14.214861)"
     light-content="false"
     non-strokable="false"
     fill="#284dbd">
    <path
       d="m 24,0 h 76 v 76 c 0,13.255 -10.745,24 -24,24 H 0 V 24 C 0,10.745 10.745,0 24,0 Z"
       id="path4" />
  </g>
  <g
     id="SvgjsG5584"
     class="U-82vM3ye2"
     transform="matrix(18.952452,0,0,18.952452,256.8318,255.88421)"
     light-content="true"
     non-strokable="false"
     fill="#ffffff">
    <path
       d="m 34,21 c 5.1,0 9.3,-1.4 12,-4.1 1.3,-1.2 1.9,-2.8 1.9,-4.5 0,-1.6 -0.6,-3.1 -1.8,-4.3 C 44.8,6.9 43,6.2 41.2,6.4 41.3,4.7 40.7,2.9 39.4,1.7 38.3,0.6 36.7,0 35.1,0 33.4,0 31.7,0.7 30.5,1.8 24.6,7.5 26.4,17 26.9,19.1 24,23.6 22.5,30 21.7,35.5 20.9,30 19.3,23.6 16.6,19.2 17,17.4 18.2,10.3 13.7,5.9 12.7,5 11.4,4.4 10,4.4 8.7,4.4 7.4,4.9 6.5,5.8 5.6,6.7 5.1,8 5.1,9.3 3.7,9.3 2.4,9.8 1.5,10.7 0.5,11.6 0,12.8 0,14.1 c 0,1.3 0.5,2.6 1.5,3.6 2.2,2.1 5.4,3.2 9.3,3.2 1.8,0 3.3,-0.2 4.2,-0.4 0.8,1.4 1.6,3 2.2,4.7 -6.7,0.2 -12.1,5.7 -12.1,12.5 0,0.6 0.4,1 1,1 6,0 11,-4.2 12.2,-9.8 1.8,6.9 2.3,14.5 2.4,17.1 h -5.8 c -0.6,0 -1,0.4 -1,1 0,0.6 0.4,1 1,1 h 18.3 c 0.6,0 1,-0.4 1,-1 0,-0.6 -0.4,-1 -1,-1 H 22.7 c 0,-1.1 0.1,-2.9 0.4,-5.2 C 29.7,40.4 35,35 35,28.3 c 0,-0.6 -0.4,-1 -1,-1 -3.9,0 -7.3,1.8 -9.6,4.5 0.8,-4.1 2.1,-8.2 4,-11.3 1,0.2 3.1,0.5 5.6,0.5 z M 7.1,36.7 c 0.5,-5 4.5,-8.9 9.4,-9.4 -0.4,4.9 -4.4,8.9 -9.4,9.4 z M 33,29.3 c -0.5,5 -4.5,8.9 -9.4,9.4 C 24,33.8 28,29.8 33,29.3 Z m -1.1,-26 c 0.9,-0.8 2,-1.3 3.2,-1.3 1.1,0 2.2,0.4 3,1.2 1.1,1.1 1.5,2.7 1,4.2 -0.1,0.4 0,0.8 0.2,1 0.3,0.3 0.7,0.4 1,0.3 1.6,-0.5 3.3,-0.2 4.5,0.9 0.8,0.8 1.2,1.8 1.2,2.8 0,1.1 -0.5,2.2 -1.3,3 -3,2.9 -7.5,3.5 -10.7,3.5 -2.4,0 -4.3,-0.3 -5.3,-0.5 C 28.3,16.2 26.9,8 31.9,3.3 Z M 10.8,18.8 C 8.4,18.8 5.1,18.3 2.9,16.2 2.3,15.7 2,14.9 2,14.1 c 0,-0.7 0.3,-1.5 0.8,-2 0.6,-0.5 1.3,-0.8 2.1,-0.8 0.4,0 0.7,0.1 1,0.2 0.4,0.1 0.8,0 1,-0.3 0.3,-0.3 0.4,-0.7 0.2,-1 C 6.9,9.1 7.1,8 7.9,7.3 9,6.2 11.1,6.2 12.3,7.4 c 3.5,3.4 2.7,9.3 2.3,11.1 -0.7,0.1 -2.1,0.3 -3.8,0.3 z"
       id="path7" />
  </g>
</svg>
